<svg id="visual" viewBox="0 0 960 540" width="960" height="540" xmlns="http://www.w3.org/2000/svg" xmlns:xlink="http://www.w3.org/1999/xlink" version="1.1"><rect x="0" y="0" width="960" height="540" fill="#FFFFFF"></rect><defs><linearGradient id="grad1_0" x1="43.8%" y1="0%" x2="100%" y2="100%"><stop offset="14.444444444444446%" stop-color="#ffffff" stop-opacity="1"></stop><stop offset="85.55555555555554%" stop-color="#ffffff" stop-opacity="1"></stop></linearGradient></defs><defs><linearGradient id="grad2_0" x1="0%" y1="0%" x2="56.3%" y2="100%"><stop offset="14.444444444444446%" stop-color="#ffffff" stop-opacity="1"></stop><stop offset="85.55555555555554%" stop-color="#ffffff" stop-opacity="1"></stop></linearGradient></defs><g transform="translate(960, 0)"><path d="M0 297C-35.6 299.9 -71.2 302.8 -91.8 282.5C-112.4 262.1 -118.1 218.6 -145.2 199.8C-172.3 181.1 -220.8 187.2 -230.6 167.5C-240.3 147.8 -211.3 102.4 -215.9 70.1C-220.5 37.9 -258.7 19 -297 0L0 0Z" fill="#715DF2"></path></g><g transform="translate(0, 540)"><path d="M0 -297C32.3 -287.3 64.6 -277.7 82.5 -253.9C100.4 -230.2 103.9 -192.3 131.7 -181.2C159.4 -170.2 211.4 -185.9 240.3 -174.6C269.2 -163.2 275 -124.8 280.6 -91.2C286.2 -57.5 291.6 -28.8 297 0L0 0Z" fill="#715DF2"></path></g></svg>